<?xml version="1.0" encoding="UTF-8" standalone="no"?><!DOCTYPE svg PUBLIC "-//W3C//DTD SVG 1.1//EN" "http://www.w3.org/Graphics/SVG/1.1/DTD/svg11.dtd"><svg width="100%" height="100%" viewBox="0 0 625 625" version="1.1" xmlns="http://www.w3.org/2000/svg" xmlns:xlink="http://www.w3.org/1999/xlink" xml:space="preserve" xmlns:serif="http://www.serif.com/" style="fill-rule:evenodd;clip-rule:evenodd;stroke-linejoin:round;stroke-miterlimit:2;"><rect x="0" y="-0" width="625" height="625" style="fill:#e5e7eb;"/><path d="M565.609,167.866l-36.159,0l0,-54.237c0,-9.989 -8.09,-18.079 -18.079,-18.079l-108.475,-0c-9.989,-0 -18.079,8.09 -18.079,18.079l-0,54.237l-144.634,0l0,-54.237c0,-9.989 -8.09,-18.079 -18.079,-18.079l-108.475,-0c-9.989,-0 -18.079,8.09 -18.079,18.079l-0,54.237l-36.159,0c-19.966,0 -36.158,16.193 -36.158,36.159l-0,289.267c-0,19.966 16.192,36.158 36.158,36.158l506.218,0c19.966,0 36.158,-16.192 36.158,-36.158l0,-289.267c0,-19.966 -16.192,-36.159 -36.158,-36.159Zm-325.426,153.674c0,4.994 -4.045,9.039 -9.039,9.039l-126.555,0c-4.994,0 -9.039,-4.045 -9.039,-9.039l-0,-18.08c-0,-4.994 4.045,-9.039 9.039,-9.039l126.555,-0c4.994,-0 9.039,4.045 9.039,9.039l0,18.08Zm289.267,-0c0,4.994 -4.045,9.039 -9.039,9.039l-45.198,0l-0,45.198c-0,4.994 -4.046,9.04 -9.04,9.04l-18.079,-0c-4.994,-0 -9.04,-4.046 -9.04,-9.04l0,-45.198l-45.198,0c-4.994,0 -9.039,-4.045 -9.039,-9.039l-0,-18.08c-0,-4.994 4.045,-9.039 9.039,-9.039l45.198,-0l0,-45.198c0,-4.994 4.046,-9.04 9.04,-9.04l18.079,0c4.994,0 9.04,4.046 9.04,9.04l-0,45.198l45.198,-0c4.994,-0 9.039,4.045 9.039,9.039l0,18.08Z" style="fill:#1f2937;fill-rule:nonzero;"/></svg>