<?xml version="1.0" encoding="UTF-8" standalone="no"?><!DOCTYPE svg PUBLIC "-//W3C//DTD SVG 1.1//EN" "http://www.w3.org/Graphics/SVG/1.1/DTD/svg11.dtd"><svg width="100%" height="100%" viewBox="0 0 625 625" version="1.1" xmlns="http://www.w3.org/2000/svg" xmlns:xlink="http://www.w3.org/1999/xlink" xml:space="preserve" xmlns:serif="http://www.serif.com/" style="fill-rule:evenodd;clip-rule:evenodd;stroke-linejoin:round;stroke-miterlimit:2;"><rect x="0" y="-0" width="625" height="625" style="fill:#e5e7eb;"/><path d="M601.767,185.946c0,-29.944 -24.294,-54.238 -54.238,-54.238l-99.435,0l-14.012,-37.176c-7.91,-21.129 -28.135,-35.141 -50.734,-35.141l-141.809,0c-22.599,0 -42.825,14.012 -50.735,35.141l-13.898,37.176l-99.435,0c-29.944,0 -54.238,24.294 -54.238,54.238l-0,325.425c-0,29.944 24.294,54.238 54.238,54.238l470.058,-0c29.944,-0 54.238,-24.294 54.238,-54.238l0,-325.425Zm-153.673,162.712c-0,74.803 -60.791,135.594 -135.594,135.594c-74.803,0 -135.594,-60.791 -135.594,-135.594c0,-74.802 60.791,-135.594 135.594,-135.594c74.803,0 135.594,60.792 135.594,135.594Zm-36.158,0c-0,-54.802 -44.633,-99.435 -99.436,-99.435c-54.803,-0 -99.436,44.633 -99.436,99.435c0,54.803 44.633,99.436 99.436,99.436c54.803,-0 99.436,-44.633 99.436,-99.436Z" style="fill:#1f2937;fill-rule:nonzero;"/></svg>