<?xml version="1.0" encoding="UTF-8" standalone="no"?><!DOCTYPE svg PUBLIC "-//W3C//DTD SVG 1.1//EN" "http://www.w3.org/Graphics/SVG/1.1/DTD/svg11.dtd"><svg width="100%" height="100%" viewBox="0 0 625 625" version="1.1" xmlns="http://www.w3.org/2000/svg" xmlns:xlink="http://www.w3.org/1999/xlink" xml:space="preserve" xmlns:serif="http://www.serif.com/" style="fill-rule:evenodd;clip-rule:evenodd;stroke-linejoin:round;stroke-miterlimit:2;"><rect x="0" y="0" width="625" height="625" style="fill:#e5e7eb;"/><path d="M196.839,312.5c55.933,0 101.203,-45.27 101.203,-101.204c0,-55.933 -45.27,-101.203 -101.203,-101.203c-55.934,-0 -101.204,45.27 -101.204,101.203c-0,55.934 45.27,101.204 101.204,101.204Zm69.396,28.915l-7.499,0c-18.795,9.036 -39.669,14.458 -61.897,14.458c-22.229,0 -43.012,-5.422 -61.897,-14.458l-7.5,0c-57.47,0 -104.095,46.626 -104.095,104.096l-0,26.023c-0,23.946 19.427,43.373 43.373,43.373l260.238,0c23.945,0 43.373,-19.427 43.373,-43.373l-0,-26.023c-0,-57.47 -46.626,-104.096 -104.096,-104.096Zm190.842,-28.915c47.891,0 86.746,-38.855 86.746,-86.746c-0,-47.891 -38.855,-86.746 -86.746,-86.746c-47.891,-0 -86.746,38.855 -86.746,86.746c-0,47.891 38.855,86.746 86.746,86.746Zm43.373,28.915l-3.434,0c-12.56,4.337 -25.843,7.229 -39.939,7.229c-14.096,0 -27.379,-2.892 -39.94,-7.229l-3.433,0c-18.434,0 -35.422,5.332 -50.331,13.916c22.048,23.765 35.873,55.3 35.873,90.18l0,34.698c0,1.988 -0.452,3.886 -0.542,5.783l159.576,0c23.946,0 43.373,-19.427 43.373,-43.373c0,-55.933 -45.27,-101.204 -101.203,-101.204Z" style="fill:#1f2937;fill-rule:nonzero;"/></svg>