<?xml version="1.0" encoding="UTF-8" standalone="no"?><!DOCTYPE svg PUBLIC "-//W3C//DTD SVG 1.1//EN" "http://www.w3.org/Graphics/SVG/1.1/DTD/svg11.dtd"><svg width="100%" height="100%" viewBox="0 0 625 625" version="1.1" xmlns="http://www.w3.org/2000/svg" xmlns:xlink="http://www.w3.org/1999/xlink" xml:space="preserve" xmlns:serif="http://www.serif.com/" style="fill-rule:evenodd;clip-rule:evenodd;stroke-linejoin:round;stroke-miterlimit:2;"><rect x="0" y="-0" width="625" height="625" style="fill:#e5e7eb;"/><path d="M556.207,80.741c-1.163,-5.411 -6.513,-10.761 -11.942,-11.922c-31.497,-6.757 -56.158,-6.757 -80.713,-6.757c-100.989,0 -161.549,54.004 -206.762,125.219l-101.95,0c-15.993,0.015 -34.784,11.617 -41.955,25.909l-48.362,96.666c-1.249,2.756 -2.352,7.447 -2.461,10.47c0.005,12.958 10.526,23.477 23.485,23.479l101.555,-0l-21.987,21.98c-11.118,11.115 -12.713,31.557 0,44.267l49.799,49.8c10.913,10.945 31.457,12.871 44.293,0l21.986,-21.98l0,101.587c0.004,12.958 10.525,23.477 23.485,23.479c3.023,-0.112 7.716,-1.215 10.474,-2.461l96.582,-48.318c14.312,-7.138 25.932,-25.924 25.932,-41.928l0,-102.168c71.021,-45.306 125.254,-106.051 125.254,-206.507c0.091,-24.656 0.091,-49.311 -6.713,-80.815Zm-118.449,145.671c-21.595,-0.005 -39.121,-17.536 -39.121,-39.131c-0,-21.6 17.53,-39.131 39.131,-39.131c21.6,0 39.13,17.531 39.13,39.131c-0.012,21.593 -17.546,39.123 -39.14,39.131Z" style="fill:#1f2937;fill-rule:nonzero;"/></svg>